<mxfile host="Electron" agent="Mozilla/5.0 (Windows NT 10.0; Win64; x64) AppleWebKit/537.36 (KHTML, like Gecko) draw.io/26.1.1 Chrome/132.0.6834.210 Electron/34.3.3 Safari/537.36" version="26.1.1">
  <diagram name="Page-1" id="HNxhSY20JknCQidhbrzt">
    <mxGraphModel dx="864" dy="508" grid="1" gridSize="10" guides="1" tooltips="1" connect="1" arrows="1" fold="1" page="1" pageScale="1" pageWidth="850" pageHeight="1100" math="0" shadow="0">
      <root>
        <mxCell id="0" />
        <mxCell id="1" parent="0" />
        <mxCell id="Em_Ewzje6dMFgfp841s1-37" value="" style="rounded=1;whiteSpace=wrap;html=1;fillColor=none;dashed=1;" parent="1" vertex="1">
          <mxGeometry x="20" y="80" width="390" height="310" as="geometry" />
        </mxCell>
        <mxCell id="Em_Ewzje6dMFgfp841s1-39" value="" style="rounded=1;whiteSpace=wrap;html=1;fillColor=none;dashed=1;" parent="1" vertex="1">
          <mxGeometry x="480" y="80" width="300" height="330" as="geometry" />
        </mxCell>
        <mxCell id="Em_Ewzje6dMFgfp841s1-1" value="&lt;span style=&quot;font-size: 30px;&quot;&gt;&lt;b&gt;Integration Model&lt;/b&gt;&lt;/span&gt;" style="text;html=1;align=center;verticalAlign=middle;whiteSpace=wrap;rounded=0;" parent="1" vertex="1">
          <mxGeometry y="10" width="270" height="30" as="geometry" />
        </mxCell>
        <mxCell id="sDB3bPF5D3cuB3Q26e1l-2" value="" style="edgeStyle=orthogonalEdgeStyle;rounded=0;orthogonalLoop=1;jettySize=auto;html=1;" edge="1" parent="1" source="Em_Ewzje6dMFgfp841s1-2" target="Em_Ewzje6dMFgfp841s1-42">
          <mxGeometry relative="1" as="geometry" />
        </mxCell>
        <mxCell id="Em_Ewzje6dMFgfp841s1-2" value="How tables are related to each other" style="text;html=1;align=left;verticalAlign=middle;whiteSpace=wrap;rounded=0;" parent="1" vertex="1">
          <mxGeometry x="270" y="20" width="210" height="30" as="geometry" />
        </mxCell>
        <mxCell id="Em_Ewzje6dMFgfp841s1-8" value="crm_cust_info" style="swimlane;fontStyle=0;childLayout=stackLayout;horizontal=1;startSize=26;fillColor=#dae8fc;horizontalStack=0;resizeParent=1;resizeParentMax=0;resizeLast=0;collapsible=1;marginBottom=0;html=1;rounded=1;strokeColor=#6c8ebf;" parent="1" vertex="1">
          <mxGeometry x="240" y="270" width="140" height="96" as="geometry" />
        </mxCell>
        <mxCell id="Em_Ewzje6dMFgfp841s1-9" value="cst_id" style="text;strokeColor=none;fillColor=none;align=left;verticalAlign=top;spacingLeft=4;spacingRight=4;overflow=hidden;rotatable=0;points=[[0,0.5],[1,0.5]];portConstraint=eastwest;whiteSpace=wrap;html=1;" parent="Em_Ewzje6dMFgfp841s1-8" vertex="1">
          <mxGeometry y="26" width="140" height="26" as="geometry" />
        </mxCell>
        <mxCell id="Em_Ewzje6dMFgfp841s1-10" value="cst_key" style="text;strokeColor=none;fillColor=none;align=left;verticalAlign=top;spacingLeft=4;spacingRight=4;overflow=hidden;rotatable=0;points=[[0,0.5],[1,0.5]];portConstraint=eastwest;whiteSpace=wrap;html=1;" parent="Em_Ewzje6dMFgfp841s1-8" vertex="1">
          <mxGeometry y="52" width="140" height="26" as="geometry" />
        </mxCell>
        <mxCell id="sDB3bPF5D3cuB3Q26e1l-5" value="&lt;b&gt;Customer&lt;/b&gt;" style="rounded=0;whiteSpace=wrap;html=1;fillColor=#d5e8d4;strokeColor=#82b366;" vertex="1" parent="Em_Ewzje6dMFgfp841s1-8">
          <mxGeometry y="78" width="140" height="18" as="geometry" />
        </mxCell>
        <mxCell id="Em_Ewzje6dMFgfp841s1-12" value="Customer Information" style="text;html=1;align=center;verticalAlign=middle;whiteSpace=wrap;rounded=0;" parent="1" vertex="1">
          <mxGeometry x="240" y="250" width="140" height="30" as="geometry" />
        </mxCell>
        <mxCell id="Em_Ewzje6dMFgfp841s1-13" value="crm_prd_info" style="swimlane;fontStyle=0;childLayout=stackLayout;horizontal=1;startSize=26;fillColor=#dae8fc;horizontalStack=0;resizeParent=1;resizeParentMax=0;resizeLast=0;collapsible=1;marginBottom=0;html=1;rounded=1;strokeColor=#6c8ebf;" parent="1" vertex="1">
          <mxGeometry x="240" y="150" width="140" height="52" as="geometry" />
        </mxCell>
        <mxCell id="Em_Ewzje6dMFgfp841s1-21" value="prd_key" style="text;strokeColor=none;fillColor=none;align=left;verticalAlign=top;spacingLeft=4;spacingRight=4;overflow=hidden;rotatable=0;points=[[0,0.5],[1,0.5]];portConstraint=eastwest;whiteSpace=wrap;html=1;" parent="Em_Ewzje6dMFgfp841s1-13" vertex="1">
          <mxGeometry y="26" width="140" height="26" as="geometry" />
        </mxCell>
        <mxCell id="Em_Ewzje6dMFgfp841s1-16" value="Current &amp;amp; History Product Information" style="text;html=1;align=center;verticalAlign=middle;whiteSpace=wrap;rounded=0;" parent="1" vertex="1">
          <mxGeometry x="240" y="120" width="140" height="30" as="geometry" />
        </mxCell>
        <mxCell id="Em_Ewzje6dMFgfp841s1-17" value="crm_sales_details" style="swimlane;fontStyle=0;childLayout=stackLayout;horizontal=1;startSize=26;fillColor=#dae8fc;horizontalStack=0;resizeParent=1;resizeParentMax=0;resizeLast=0;collapsible=1;marginBottom=0;html=1;rounded=1;strokeColor=#6c8ebf;" parent="1" vertex="1">
          <mxGeometry x="40" y="220" width="140" height="78" as="geometry" />
        </mxCell>
        <mxCell id="Em_Ewzje6dMFgfp841s1-18" value="sls_prd_key" style="text;strokeColor=none;fillColor=none;align=left;verticalAlign=top;spacingLeft=4;spacingRight=4;overflow=hidden;rotatable=0;points=[[0,0.5],[1,0.5]];portConstraint=eastwest;whiteSpace=wrap;html=1;" parent="Em_Ewzje6dMFgfp841s1-17" vertex="1">
          <mxGeometry y="26" width="140" height="26" as="geometry" />
        </mxCell>
        <mxCell id="Em_Ewzje6dMFgfp841s1-19" value="sls_cust_id" style="text;strokeColor=none;fillColor=none;align=left;verticalAlign=top;spacingLeft=4;spacingRight=4;overflow=hidden;rotatable=0;points=[[0,0.5],[1,0.5]];portConstraint=eastwest;whiteSpace=wrap;html=1;" parent="Em_Ewzje6dMFgfp841s1-17" vertex="1">
          <mxGeometry y="52" width="140" height="26" as="geometry" />
        </mxCell>
        <mxCell id="Em_Ewzje6dMFgfp841s1-20" value="Transactional Records about Sales and Orders" style="text;html=1;align=center;verticalAlign=middle;whiteSpace=wrap;rounded=0;" parent="1" vertex="1">
          <mxGeometry x="40" y="190" width="140" height="30" as="geometry" />
        </mxCell>
        <mxCell id="Em_Ewzje6dMFgfp841s1-22" style="edgeStyle=orthogonalEdgeStyle;rounded=0;orthogonalLoop=1;jettySize=auto;html=1;entryX=0;entryY=0.5;entryDx=0;entryDy=0;" parent="1" source="Em_Ewzje6dMFgfp841s1-18" target="Em_Ewzje6dMFgfp841s1-21" edge="1">
          <mxGeometry relative="1" as="geometry" />
        </mxCell>
        <mxCell id="Em_Ewzje6dMFgfp841s1-23" style="edgeStyle=orthogonalEdgeStyle;rounded=0;orthogonalLoop=1;jettySize=auto;html=1;entryX=0;entryY=0.5;entryDx=0;entryDy=0;" parent="1" source="Em_Ewzje6dMFgfp841s1-19" target="Em_Ewzje6dMFgfp841s1-9" edge="1">
          <mxGeometry relative="1" as="geometry" />
        </mxCell>
        <mxCell id="Em_Ewzje6dMFgfp841s1-24" value="erp_cust_az12" style="swimlane;fontStyle=0;childLayout=stackLayout;horizontal=1;startSize=26;fillColor=#ffe6cc;horizontalStack=0;resizeParent=1;resizeParentMax=0;resizeLast=0;collapsible=1;marginBottom=0;html=1;rounded=1;strokeColor=#d79b00;" parent="1" vertex="1">
          <mxGeometry x="565" y="250" width="140" height="52" as="geometry" />
        </mxCell>
        <mxCell id="Em_Ewzje6dMFgfp841s1-25" value="cid" style="text;strokeColor=none;fillColor=none;align=left;verticalAlign=top;spacingLeft=4;spacingRight=4;overflow=hidden;rotatable=0;points=[[0,0.5],[1,0.5]];portConstraint=eastwest;whiteSpace=wrap;html=1;" parent="Em_Ewzje6dMFgfp841s1-24" vertex="1">
          <mxGeometry y="26" width="140" height="26" as="geometry" />
        </mxCell>
        <mxCell id="Em_Ewzje6dMFgfp841s1-27" value="Extra Information about customer gender and bdate" style="text;html=1;align=center;verticalAlign=middle;whiteSpace=wrap;rounded=0;" parent="1" vertex="1">
          <mxGeometry x="560" y="220" width="150" height="30" as="geometry" />
        </mxCell>
        <mxCell id="Em_Ewzje6dMFgfp841s1-28" style="edgeStyle=orthogonalEdgeStyle;rounded=0;orthogonalLoop=1;jettySize=auto;html=1;entryX=1;entryY=0.5;entryDx=0;entryDy=0;" parent="1" source="Em_Ewzje6dMFgfp841s1-25" target="Em_Ewzje6dMFgfp841s1-10" edge="1">
          <mxGeometry relative="1" as="geometry" />
        </mxCell>
        <mxCell id="Em_Ewzje6dMFgfp841s1-29" value="erp_cust_loc_a101" style="swimlane;fontStyle=0;childLayout=stackLayout;horizontal=1;startSize=26;fillColor=#ffe6cc;horizontalStack=0;resizeParent=1;resizeParentMax=0;resizeLast=0;collapsible=1;marginBottom=0;html=1;rounded=1;strokeColor=#d79b00;" parent="1" vertex="1">
          <mxGeometry x="565" y="330" width="140" height="52" as="geometry" />
        </mxCell>
        <mxCell id="Em_Ewzje6dMFgfp841s1-30" value="cid" style="text;strokeColor=none;fillColor=none;align=left;verticalAlign=top;spacingLeft=4;spacingRight=4;overflow=hidden;rotatable=0;points=[[0,0.5],[1,0.5]];portConstraint=eastwest;whiteSpace=wrap;html=1;" parent="Em_Ewzje6dMFgfp841s1-29" vertex="1">
          <mxGeometry y="26" width="140" height="26" as="geometry" />
        </mxCell>
        <mxCell id="Em_Ewzje6dMFgfp841s1-31" value="Customer country" style="text;html=1;align=center;verticalAlign=middle;whiteSpace=wrap;rounded=0;" parent="1" vertex="1">
          <mxGeometry x="560" y="310" width="150" height="30" as="geometry" />
        </mxCell>
        <mxCell id="Em_Ewzje6dMFgfp841s1-32" style="edgeStyle=orthogonalEdgeStyle;rounded=0;orthogonalLoop=1;jettySize=auto;html=1;entryX=1;entryY=0.5;entryDx=0;entryDy=0;" parent="1" source="Em_Ewzje6dMFgfp841s1-30" target="Em_Ewzje6dMFgfp841s1-10" edge="1">
          <mxGeometry relative="1" as="geometry" />
        </mxCell>
        <mxCell id="Em_Ewzje6dMFgfp841s1-33" value="erp_px_cat_g1v2" style="swimlane;fontStyle=0;childLayout=stackLayout;horizontal=1;startSize=26;fillColor=#ffe6cc;horizontalStack=0;resizeParent=1;resizeParentMax=0;resizeLast=0;collapsible=1;marginBottom=0;html=1;rounded=1;strokeColor=#d79b00;" parent="1" vertex="1">
          <mxGeometry x="565" y="150" width="140" height="52" as="geometry" />
        </mxCell>
        <mxCell id="Em_Ewzje6dMFgfp841s1-34" value="id" style="text;strokeColor=none;fillColor=none;align=left;verticalAlign=top;spacingLeft=4;spacingRight=4;overflow=hidden;rotatable=0;points=[[0,0.5],[1,0.5]];portConstraint=eastwest;whiteSpace=wrap;html=1;" parent="Em_Ewzje6dMFgfp841s1-33" vertex="1">
          <mxGeometry y="26" width="140" height="26" as="geometry" />
        </mxCell>
        <mxCell id="Em_Ewzje6dMFgfp841s1-35" value="Product categories" style="text;html=1;align=center;verticalAlign=middle;whiteSpace=wrap;rounded=0;" parent="1" vertex="1">
          <mxGeometry x="560" y="130" width="150" height="30" as="geometry" />
        </mxCell>
        <mxCell id="Em_Ewzje6dMFgfp841s1-36" style="edgeStyle=orthogonalEdgeStyle;rounded=0;orthogonalLoop=1;jettySize=auto;html=1;entryX=1;entryY=0.5;entryDx=0;entryDy=0;" parent="1" source="Em_Ewzje6dMFgfp841s1-34" target="Em_Ewzje6dMFgfp841s1-21" edge="1">
          <mxGeometry relative="1" as="geometry" />
        </mxCell>
        <mxCell id="Em_Ewzje6dMFgfp841s1-38" value="&lt;b&gt;CRM&lt;/b&gt;" style="rounded=1;whiteSpace=wrap;html=1;fillColor=#dae8fc;strokeColor=#6c8ebf;" parent="1" vertex="1">
          <mxGeometry x="135" y="70" width="160" height="30" as="geometry" />
        </mxCell>
        <mxCell id="Em_Ewzje6dMFgfp841s1-42" value="&lt;b&gt;ERP&lt;/b&gt;" style="rounded=1;whiteSpace=wrap;html=1;fillColor=#ffe6cc;strokeColor=#d79b00;" parent="1" vertex="1">
          <mxGeometry x="555" y="70" width="160" height="30" as="geometry" />
        </mxCell>
        <mxCell id="sDB3bPF5D3cuB3Q26e1l-1" value="&lt;b&gt;Product&lt;/b&gt;" style="rounded=0;whiteSpace=wrap;html=1;fillColor=#f8cecc;strokeColor=#b85450;" vertex="1" parent="1">
          <mxGeometry x="240" y="197" width="140" height="18" as="geometry" />
        </mxCell>
        <mxCell id="sDB3bPF5D3cuB3Q26e1l-3" value="&lt;b&gt;Product&lt;/b&gt;" style="rounded=0;whiteSpace=wrap;html=1;fillColor=#f8cecc;strokeColor=#b85450;" vertex="1" parent="1">
          <mxGeometry x="565" y="196" width="140" height="18" as="geometry" />
        </mxCell>
        <mxCell id="sDB3bPF5D3cuB3Q26e1l-6" value="&lt;b&gt;Customer&lt;/b&gt;" style="rounded=0;whiteSpace=wrap;html=1;fillColor=#d5e8d4;strokeColor=#82b366;" vertex="1" parent="1">
          <mxGeometry x="565" y="297" width="140" height="18" as="geometry" />
        </mxCell>
        <mxCell id="sDB3bPF5D3cuB3Q26e1l-7" value="&lt;b&gt;Customer&lt;/b&gt;" style="rounded=0;whiteSpace=wrap;html=1;fillColor=#d5e8d4;strokeColor=#82b366;" vertex="1" parent="1">
          <mxGeometry x="565" y="378" width="140" height="18" as="geometry" />
        </mxCell>
        <mxCell id="sDB3bPF5D3cuB3Q26e1l-8" value="&lt;b&gt;Sales&lt;/b&gt;" style="rounded=0;whiteSpace=wrap;html=1;fillColor=#e1d5e7;strokeColor=#9673a6;" vertex="1" parent="1">
          <mxGeometry x="40" y="293" width="140" height="18" as="geometry" />
        </mxCell>
      </root>
    </mxGraphModel>
  </diagram>
</mxfile>
